<?xml version="1.0" standalone="no"?>
<!DOCTYPE svg PUBLIC "-//W3C//DTD SVG 20010904//EN"
 "http://www.w3.org/TR/2001/REC-SVG-20010904/DTD/svg10.dtd">
<svg version="1.0" xmlns="http://www.w3.org/2000/svg"
 width="952.000000pt" height="855.000000pt" viewBox="0 0 952.000000 855.000000"
 preserveAspectRatio="xMidYMid meet">

<g transform="translate(0.000000,855.000000) scale(0.100000,-0.100000)"
fill="#FDFFF5" stroke="none">
<path d="M4694 8494 c-94 -56 -162 -111 -260 -209 -112 -111 -184 -206 -235
-310 -62 -128 -62 -130 16 -216 201 -222 282 -343 422 -629 105 -214 106 -215
119 -185 187 421 286 585 476 789 52 55 91 107 90 115 -34 150 -174 328 -453
577 l-116 103 -59 -35z"/>
<path d="M5978 8031 c-183 -76 -402 -205 -432 -254 -8 -13 -4 -51 18 -155 47
-223 54 -268 67 -454 7 -98 16 -178 21 -178 4 0 60 52 125 116 124 122 196
182 276 228 l47 28 0 96 c0 54 3 215 7 360 4 156 3 262 -3 262 -5 0 -62 -23
-126 -49z"/>
<path d="M3360 7713 l1 -358 61 -35 c73 -42 170 -121 296 -242 51 -49 97 -86
102 -83 6 3 10 25 10 48 0 39 13 130 70 507 11 74 20 156 20 182 0 43 -3 49
-42 81 -107 87 -292 188 -422 232 -41 14 -79 25 -85 25 -8 0 -11 -109 -11
-357z"/>
<path d="M4063 7603 c-72 -174 -95 -681 -44 -983 100 -583 321 -955 589 -987
l52 -6 0 354 c0 516 -17 670 -96 909 -76 228 -181 428 -309 587 -62 77 -150
163 -168 163 -4 0 -15 -17 -24 -37z"/>
<path d="M5285 7558 c-99 -101 -205 -259 -290 -433 -159 -325 -185 -484 -185
-1133 l0 -374 31 6 c55 11 153 64 220 119 74 62 152 160 204 258 191 362 280
1068 185 1465 -23 96 -55 174 -72 174 -7 0 -49 -37 -93 -82z"/>
<path d="M6455 7379 c-93 -49 -174 -90 -180 -92 -6 -2 -12 -142 -17 -373 -10
-588 -56 -836 -213 -1159 -240 -494 -564 -757 -1108 -900 l-122 -32 -3 -203
-2 -203 107 6 c768 47 1436 694 1653 1602 61 257 63 281 67 888 3 306 1 557
-4 556 -4 0 -84 -40 -178 -90z"/>
<path d="M2826 7428 c-13 -75 -18 -648 -7 -803 43 -593 166 -1026 387 -1356
200 -299 504 -565 806 -709 187 -88 336 -127 519 -137 l117 -6 7 164 c4 90 5
180 3 198 l-3 35 -95 17 c-269 47 -460 129 -650 278 -271 214 -526 627 -624
1013 -57 224 -68 336 -73 771 l-5 388 -59 30 c-33 16 -89 48 -126 70 -66 41
-152 79 -177 79 -8 0 -16 -15 -20 -32z"/>
<path d="M5980 7069 c-146 -116 -173 -141 -225 -211 -54 -72 -75 -129 -169
-448 -103 -350 -150 -459 -267 -623 -95 -134 -182 -210 -335 -291 -71 -38
-139 -76 -151 -84 -23 -14 -23 -18 -23 -218 l0 -204 48 0 c110 1 316 66 443
140 147 86 318 248 431 406 284 398 440 992 387 1474 -19 171 -6 165 -139 59z"/>
<path d="M3363 6888 c14 -544 68 -817 223 -1118 112 -218 253 -389 427 -521
190 -143 422 -245 574 -251 l68 -3 0 205 0 205 -138 70 c-214 109 -295 178
-399 340 -101 157 -164 315 -232 590 -72 284 -121 397 -234 531 -59 71 -250
214 -286 214 -5 0 -7 -107 -3 -262z"/>
<path d="M2730 3176 l0 -476 105 0 105 0 0 99 0 99 153 4 c142 3 156 5 214 32
69 31 148 107 181 172 93 184 14 413 -176 506 l-66 33 -258 3 -258 3 0 -475z
m508 268 c133 -66 145 -243 23 -329 -42 -29 -46 -30 -182 -33 l-139 -4 0 196
0 196 123 0 c112 0 128 -2 175 -26z"/>
<path d="M3940 3175 l0 -475 645 0 645 0 0 475 0 475 -100 0 -100 0 0 -370 0
-370 -170 0 -170 0 0 370 0 370 -105 0 -105 0 0 -370 0 -370 -165 0 -165 0 0
370 0 370 -105 0 -105 0 0 -475z"/>
<path d="M7050 3175 l0 -475 105 0 105 0 0 185 0 185 205 0 205 0 2 -182 3
-183 103 -3 102 -3 0 476 0 475 -105 0 -105 0 0 -185 0 -185 -205 0 -205 0 0
185 0 185 -105 0 -105 0 0 -475z"/>
<path d="M1535 3170 c-143 -248 -261 -455 -263 -460 -2 -6 43 -10 115 -10
l118 0 144 250 c79 138 147 250 150 250 3 0 71 -112 150 -250 l145 -250 119 0
c65 0 117 4 115 9 -8 22 -524 910 -528 911 -3 0 -122 -203 -265 -450z"/>
<path d="M6122 3588 c-11 -18 -129 -222 -262 -453 -133 -231 -244 -424 -247
-428 -3 -4 48 -6 112 -5 l117 3 140 240 c76 132 143 246 147 254 5 9 55 -68
155 -243 l148 -256 124 0 123 0 -68 118 c-37 64 -155 268 -261 452 -106 184
-196 339 -200 343 -4 5 -17 -6 -28 -25z"/>
<path d="M6062 2843 c-39 -75 -70 -138 -68 -140 2 -2 71 -2 154 -1 l150 3 -82
137 -83 138 -71 -137z"/>
<path d="M1716 2841 c-36 -71 -66 -132 -66 -135 0 -3 68 -6 150 -6 83 0 150 3
150 6 0 10 -155 264 -161 264 -4 0 -36 -58 -73 -129z"/>
<path d="M2480 2129 c-90 -10 -169 -42 -224 -90 -25 -22 -46 -44 -46 -47 0 -4
28 -38 61 -75 l62 -68 26 24 c51 48 91 62 176 62 63 0 89 -5 120 -22 52 -27
100 -78 120 -125 l15 -38 -215 0 -215 0 0 -85 0 -85 216 0 215 0 -7 -22 c-20
-66 -76 -127 -143 -156 -55 -23 -176 -20 -236 7 -27 12 -58 29 -68 38 -17 16
-21 13 -84 -49 -76 -76 -75 -85 4 -137 73 -49 159 -71 272 -71 297 0 491 188
491 475 0 147 -43 258 -135 344 -106 100 -237 139 -405 120z"/>
<path d="M3420 1665 l0 -475 100 0 100 0 2 274 3 273 149 -258 c82 -143 151
-257 154 -254 3 2 72 121 153 262 l149 258 0 -278 0 -277 100 0 100 0 0 475 0
476 -101 -3 -101 -3 -147 -255 c-82 -140 -151 -255 -156 -255 -4 0 -74 115
-155 255 l-148 255 -101 3 -101 3 0 -476z"/>
<path d="M22 1658 l3 -473 103 -3 102 -3 0 376 0 375 225 0 225 0 0 100 0 100
-330 0 -330 0 2 -472z"/>
<path d="M4870 1655 l0 -475 100 0 100 0 2 373 3 372 208 3 207 2 0 -375 0
-376 103 3 102 3 3 473 2 472 -415 0 -415 0 0 -475z"/>
<path d="M6142 1658 l3 -473 106 -3 106 -3 214 297 214 296 5 -294 5 -293 103
-3 102 -3 0 476 0 475 -112 0 -113 -1 -210 -301 -210 -301 -3 301 -2 302 -105
0 -105 0 2 -472z"/>
<path d="M7492 1658 l3 -473 102 -3 103 -3 2 188 3 188 205 0 205 0 3 -187 2
-188 100 0 100 0 0 475 0 475 -100 0 -100 0 -2 -182 -3 -183 -207 -3 -208 -2
0 185 0 185 -105 0 -105 0 2 -472z"/>
<path d="M8832 1658 l3 -473 103 -3 102 -3 0 376 0 375 225 0 225 0 0 100 0
100 -330 0 -330 0 2 -472z"/>
<path d="M1095 1659 c-143 -247 -261 -456 -263 -465 -3 -12 13 -14 108 -12
l112 3 146 252 c80 139 148 250 152 248 4 -2 71 -117 151 -255 l143 -250 118
0 c74 0 118 4 118 10 0 8 -510 900 -524 917 -1 1 -118 -201 -261 -448z"/>
<path d="M9254 569 c-9 -15 27 -61 60 -77 15 -8 39 -11 53 -7 57 14 101 95 50
95 -12 0 -28 -9 -35 -20 -7 -11 -23 -20 -37 -20 -14 0 -29 8 -35 20 -12 22
-45 27 -56 9z"/>
<path d="M27 454 c-4 -4 -7 -81 -7 -171 l0 -163 35 0 35 0 0 70 0 70 80 0 80
0 0 -70 0 -70 35 0 35 0 -2 168 -3 167 -30 0 -30 0 -3 -67 -3 -68 -79 0 -79 0
-3 68 c-3 63 -4 67 -28 70 -14 2 -29 0 -33 -4z"/>
<path d="M636 447 c-45 -14 -52 -25 -33 -51 12 -17 18 -18 47 -8 68 24 131 8
143 -38 5 -19 1 -20 -69 -20 -91 0 -130 -17 -150 -67 -42 -100 69 -183 180
-134 37 16 46 17 46 5 0 -9 11 -14 30 -14 l30 0 0 123 c0 132 -7 157 -52 190
-33 25 -117 32 -172 14z m142 -173 c25 -7 27 -21 11 -57 -31 -67 -159 -60
-159 9 0 44 74 67 148 48z"/>
<path d="M1190 438 c-55 -38 -74 -71 -78 -141 -2 -47 1 -70 16 -97 51 -94 178
-116 259 -46 27 23 27 25 10 44 -19 20 -19 20 -55 -5 -29 -19 -45 -24 -75 -20
-41 6 -82 36 -90 68 -5 18 2 19 118 19 89 0 124 3 127 12 8 23 -12 99 -33 129
-44 62 -137 79 -199 37z m137 -60 c12 -13 23 -32 25 -43 3 -19 -3 -20 -84 -23
-83 -3 -88 -2 -88 18 0 61 104 94 147 48z"/>
<path d="M1706 448 c-3 -7 -7 -56 -9 -108 -6 -111 -20 -160 -48 -160 -17 0
-19 -8 -19 -70 0 -68 1 -70 25 -70 21 0 26 6 31 40 l7 40 118 0 119 0 0 -40
c0 -38 2 -40 30 -40 l30 0 0 70 c0 63 -2 70 -20 70 -18 0 -20 8 -22 137 l-3
138 -118 3 c-89 2 -118 0 -121 -10z m174 -158 l0 -110 -71 0 c-69 0 -71 1 -64
23 3 12 11 61 17 110 l12 87 53 0 53 0 0 -110z"/>
<path d="M2230 290 l0 -170 28 0 c24 0 40 17 115 117 l87 117 0 -117 0 -117
35 0 35 0 -2 168 -3 167 -27 3 c-24 3 -37 -10 -115 -114 l-88 -117 -3 116 -3
117 -29 0 -30 0 0 -170z"/>
<path d="M2800 290 l0 -170 30 0 30 0 0 70 0 70 85 0 85 0 0 -70 0 -70 30 0
30 0 0 170 0 170 -30 0 -30 0 0 -70 0 -70 -85 0 -85 0 0 70 0 70 -30 0 -30 0
0 -170z"/>
<path d="M3431 443 c-71 -35 -107 -137 -77 -218 44 -113 176 -148 271 -71 29
24 30 24 11 45 -19 20 -19 20 -46 1 -61 -43 -137 -33 -165 21 -8 15 -15 30
-15 34 0 3 56 5 125 5 l125 0 0 38 c0 53 -38 121 -80 143 -43 23 -104 24 -149
2z m138 -69 c12 -15 21 -35 21 -46 0 -17 -7 -19 -87 -16 -53 2 -88 7 -90 14
-2 6 8 26 22 43 22 26 34 31 70 31 35 0 48 -5 64 -26z"/>
<path d="M4354 446 c-83 -36 -120 -161 -73 -246 55 -98 192 -117 268 -36 21
22 21 23 2 40 -19 17 -21 17 -50 -3 -65 -46 -134 -33 -165 33 -20 42 -20 69
-1 106 33 64 109 80 163 35 29 -24 30 -24 47 -5 23 26 14 45 -34 70 -46 23
-111 26 -157 6z"/>
<path d="M5180 290 l0 -170 30 0 30 0 0 140 0 140 80 0 80 0 0 -140 0 -140 35
0 35 0 0 170 0 170 -145 0 -145 0 0 -170z"/>
<path d="M5740 240 l0 -220 30 0 30 0 0 65 c0 36 3 65 7 65 4 0 26 -9 50 -21
62 -30 115 -19 170 35 48 48 64 111 44 176 -31 103 -143 152 -229 100 -40 -25
-42 -25 -42 0 0 16 -7 20 -30 20 l-30 0 0 -220z m241 131 c24 -25 29 -37 29
-80 0 -42 -5 -56 -29 -83 -76 -85 -208 5 -171 117 25 77 115 101 171 46z"/>
<path d="M6337 454 c-4 -4 -7 -81 -7 -171 l0 -163 30 0 c26 0 40 13 117 117
l88 116 3 -116 3 -117 29 0 30 0 0 170 0 170 -28 0 c-24 0 -40 -16 -112 -114
l-85 -114 -5 112 c-5 110 -5 111 -30 114 -14 2 -29 0 -33 -4z"/>
<path d="M6907 453 c-4 -3 -7 -102 -7 -220 l0 -213 35 0 35 0 0 70 0 71 30
-23 c41 -30 113 -30 162 0 75 47 102 181 51 250 -52 71 -142 93 -208 52 l-33
-20 -5 20 c-5 20 -45 28 -60 13z m234 -82 c24 -25 29 -37 29 -81 0 -61 -20
-95 -65 -110 -83 -27 -154 47 -134 140 18 78 114 107 170 51z"/>
<path d="M7575 446 c-66 -29 -113 -119 -100 -190 26 -137 189 -189 294 -93 75
69 64 208 -21 268 -39 28 -128 36 -173 15z m134 -62 c79 -56 51 -192 -44 -210
-113 -21 -170 139 -75 213 22 18 92 16 119 -3z"/>
<path d="M8096 367 c-8 -124 -25 -181 -54 -185 -20 -3 -22 -9 -22 -73 l0 -69
30 0 c28 0 30 2 30 40 l0 40 120 0 120 0 0 -40 c0 -38 2 -40 30 -40 22 0 30 5
30 18 0 9 3 41 6 70 7 51 6 52 -20 52 l-26 0 0 140 0 140 -119 0 -118 0 -7
-93z m182 -79 l3 -108 -76 0 c-75 0 -76 1 -69 23 16 51 24 95 24 145 l0 53 58
-3 57 -3 3 -107z"/>
<path d="M8683 435 c-48 -29 -83 -92 -83 -148 0 -191 268 -240 335 -62 59 154
-110 295 -252 210z m163 -69 c29 -29 34 -41 34 -80 0 -36 -6 -52 -29 -78 -25
-28 -36 -33 -76 -33 -40 0 -51 5 -76 33 -24 27 -29 41 -29 83 0 43 5 55 29 80
43 43 101 41 147 -5z"/>
<path d="M9200 290 l0 -170 29 0 c25 0 40 14 112 112 l84 112 3 -112 3 -112
35 0 34 0 -2 168 -3 167 -26 3 c-22 3 -37 -12 -115 -115 l-89 -118 -3 118 -3
117 -29 0 -30 0 0 -170z"/>
</g>
</svg>
