<!-- icon666.com - MILLIONS vector ICONS FREE --><svg id="Capa_1" fill="#FFFFFF" enable-background="new 0 0 512 512" viewBox="0 0 512 512" xmlns="http://www.w3.org/2000/svg"><g><path d="m477.671 136.28-114.55-50.911c-1.818-21.24-14.14-40.305-33.069-50.629l-54.59-29.777c-5.953-3.246-12.682-4.963-19.462-4.963s-13.509 1.717-19.462 4.963l-54.59 29.775c-18.93 10.325-31.252 29.389-33.069 50.629l-114.55 50.911c-20.854 9.27-34.329 30.004-34.329 52.825v298.122c0 13.662 11.113 24.775 24.774 24.775h462.452c13.661 0 24.774-11.113 24.774-24.774v-298.123c0-22.821-13.475-43.555-34.329-52.823zm-10.116 276.623h27.929v55.858zm-269.361 49.549v33.032h-27.929l36.187-72.374 36.187 72.374h-27.929v-33.032zm-99.097 0v33.032h-27.929l36.187-72.374 36.187 72.374h-27.929v-33.032zm24.774-316.124-25.53-20.424 14.856-6.602 22.229 17.783zm85.477-47.231h23.109l-144.516 115.613h-23.109zm93.304 0 47.484 37.987-11.555 9.244-59.039-47.231zm110.251 140.387v33.032c0 4.553-3.705 8.258-8.258 8.258h-125.291c.917-2.585 1.42-5.364 1.42-8.258v-33.032c0-2.894-.504-5.673-1.42-8.258h125.291c4.553 0 8.258 3.705 8.258 8.258zm-148.645 0v33.032c0 4.553-3.705 8.258-8.258 8.258s-8.258-3.705-8.258-8.258v-33.032c0-4.553 3.705-8.258 8.258-8.258s8.258 3.705 8.258 8.258zm-33.032 24.774h-9.344l9.344-14.016zm-7.172-33.032-17.602 26.403-17.602-26.403zm-99.097 33.032h-35.204l17.602-26.403zm-2.172-33.032h35.204l-17.602 26.403zm50.634 6.629 17.602 26.403h-35.204zm0-70.376 59.039 47.231h-23.109l-47.484-37.987zm13.219-10.576 69.362-55.489 69.362 55.489-69.362 55.489zm-37.993 30.395 34.265 27.412h-68.529zm-56.72 43.928-17.602 26.403-17.602-26.403zm-33.033 33.032h-35.204l17.602-26.403zm173.754 16.516c2.492 7.027 8.069 12.603 15.096 15.096v27.281l-41.29-27.527-49.548 33.032-49.548-33.032-49.548 33.032-41.29-27.527v-20.354h216.128zm8.467 57.807-34.661 23.107-34.661-23.107 34.661-23.107zm-99.097 0-34.661 23.107-34.661-23.107 34.661-23.107zm-125.5-17.602 26.403 17.602-26.403 17.602zm0 55.053 41.29-27.527 49.548 33.032 49.548-33.032 49.548 33.032 41.29-27.527v42.377h-231.224zm176.574 36.871-36.187 72.374-36.187-72.374zm54.652 0v55.858l-27.929-55.858zm16.516-115.613h99.097v165.161h-99.097zm115.613 0h16.516v165.161h-16.516zm-16.516-109.992 34.265 27.412h-68.529zm64.644 43.928h19.022l-17.602 26.403v-18.145c0-2.895-.503-5.673-1.42-8.258zm34.453 6.629 17.602 26.403h-35.204zm33.032 19.774-17.602-26.403h17.602zm-71.426-42.919-47.484-37.987 11.555-9.244 59.039 47.231zm-121.406 0h-23.109l119.261-95.409 14.856 6.602zm-286.136 30.532v-14.016h9.344zm77.477 167.661-36.187 72.374-36.186-72.374zm170.265 66.065h132.129v16.516h-132.129zm148.645-66.065h27.929l-27.929 55.858zm82.581-16.516h-82.581v-42.376l41.29 27.527 41.29-27.527v42.376zm-75.952-57.806 34.661-23.107 34.661 23.107-34.661 23.107zm34.662-42.958-41.29 27.527v-27.28c7.027-2.492 12.603-8.069 15.096-15.096h67.485v42.376zm41.29-106.52v25.606h-21.878l-72.258-57.806 29.307-23.446 40.308 17.915c14.896 6.62 24.521 21.431 24.521 37.731zm-113.678-77.356-18.452 14.761-34.264-27.411h24.253zm-191.95-62.508 54.59-29.775c3.534-1.928 7.53-2.947 11.554-2.947s8.02 1.019 11.553 2.946l54.591 29.777c12.774 6.967 21.465 19.308 23.946 33.342h-180.18c2.481-14.034 11.173-26.377 23.946-33.343zm-31.2 49.858h24.253l-34.264 27.412-18.452-14.761zm-117.62 52.275 40.308-17.915 29.308 23.446-72.258 57.807h-21.878v-25.606c0-16.301 9.625-31.112 24.52-37.732zm-24.52 335.854v-47.599l27.929 55.858h-19.671c-4.553-.001-8.258-3.706-8.258-8.259zm445.936 8.258v-33.032h-16.516v33.032h-27.929l36.187-72.374 35.921 71.842c-.9.338-1.871.532-2.888.532z"></path></g></svg>