<!-- icon666.com - MILLIONS vector ICONS FREE --><svg version="1.1" id="Layer_1" fill="#A0522D" xmlns="http://www.w3.org/2000/svg" xmlns:xlink="http://www.w3.org/1999/xlink" x="0px" y="0px" viewBox="0 0 489.819 489.819" style="enable-background:new 0 0 489.819 489.819;" xml:space="preserve"><g><g><g><rect x="37.91" y="185" width="207" height="14"></rect><rect x="259.909" y="185" width="22" height="14"></rect><path d="M136.212,334.847c-4.862-1.593-9.643-3.384-14.333-5.37l-28.096,82.034c5.308,0.252,10.34,1.567,14.893,3.733 L136.212,334.847z"></path><polygon points="342.909,123 22.91,123 22.91,137 360.909,137 360.909,99 382.909,99 382.909,84 342.909,84 "></polygon><path d="M390.909,62v37h91V62H390.909z M465.909,84h-60v-8h60V84z"></path><rect x="153.91" y="62" width="16" height="37"></rect><rect x="183.91" width="16" height="84"></rect><rect x="220.91" y="38" width="16" height="54"></rect><rect x="251.91" y="84" width="16" height="15"></rect><path d="M7.91,160.898c0,74.676,47.938,140.613,113.969,168.578c4.69,1.986,9.471,3.778,14.333,5.37 c17.521,5.74,36.085,8.866,55.2,8.866c28.649,0,56.063-7.009,80.572-19.353c4.596-2.315,9.095-4.807,13.475-7.487 c53.053-32.46,89.451-90.902,89.451-155.976V155h-367V160.898z M357.086,170c-4.156,86-79.09,159.872-167.333,159.872 S26.571,256,22.415,170H357.086z"></path><path d="M330.125,411.463c-2.159,0-4.275,0.183-6.34,0.521l-38.327-95.11c-4.38,2.68-8.879,5.172-13.475,7.487l37.482,93.014 c-9.314,5.805-16.019,15.407-17.945,26.625H130.503c0.371,2.161,0.575,4.378,0.575,6.643c0,2.869-0.318,5.663-0.906,8.357 h161.681c3.841,17.599,19.539,30.818,38.273,30.818c21.602,0,39.176-17.573,39.176-39.176 C369.302,429.04,351.729,411.463,330.125,411.463z M330.125,474.523c-13.171,0-23.884-10.714-23.884-23.88 c0-13.17,10.713-23.884,23.884-23.884c13.167,0,23.88,10.713,23.88,23.884C354.005,463.81,343.292,474.523,330.125,474.523z"></path><path d="M108.675,415.245c-4.553-2.167-9.586-3.481-14.893-3.733c-0.624-0.03-1.25-0.048-1.881-0.048 c-21.602,0-39.175,17.577-39.175,39.179c0,21.602,17.573,39.176,39.175,39.176c18.734,0,34.429-13.219,38.269-30.818 c0.588-2.695,0.906-5.489,0.906-8.357c0.001-2.266-0.203-4.483-0.574-6.644C128.32,431.275,119.987,420.627,108.675,415.245z M91.902,474.523c-13.167,0-23.88-10.714-23.88-23.88c0-13.17,10.713-23.884,23.88-23.884s23.88,10.714,23.88,23.884 C115.782,463.809,105.068,474.523,91.902,474.523z"></path></g></g></g></svg>