<!-- icon666.com - MILLIONS vector ICONS FREE --><svg version="1.1" id="Capa_1" fill="#A0522D" xmlns="http://www.w3.org/2000/svg" xmlns:xlink="http://www.w3.org/1999/xlink" x="0px" y="0px" viewBox="0 0 512 512" style="enable-background:new 0 0 512 512;" xml:space="preserve"><g ><g><path d="M178.278,159.023H76.988c-8.325,0-15.082,6.747-15.082,15.082v91.175c0,8.325,6.757,15.082,15.082,15.082h101.29 c8.335,0,15.082-6.757,15.082-15.082v-91.175C193.36,165.77,186.613,159.023,178.278,159.023z M163.196,250.199H92.07v-61.011 h71.126V250.199z"></path></g></g><g><g><path d="M366.46,260.836l-28.072-91.175c-1.941-6.324-7.792-10.638-14.408-10.638h-88.661c-8.325,0-15.082,6.747-15.082,15.082 v91.175c0,8.325,6.757,15.082,15.082,15.082h116.734C362.169,280.362,369.448,270.546,366.46,260.836z M250.4,250.199v-61.011 h62.439l18.782,61.011H250.4z"></path></g></g><g><g><path d="M273.575,302.161h-33.864c-8.335,0-15.082,6.747-15.082,15.082c0,8.325,6.747,15.082,15.082,15.082h33.864 c8.335,0,15.082-6.757,15.082-15.082C288.657,308.907,281.911,302.161,273.575,302.161z"></path></g></g><g><g><path d="M127.633,382.648c-11.724,0-21.195,9.513-21.195,21.195c0,11.714,9.492,21.195,21.195,21.195 c11.714,0,21.195-9.481,21.195-21.195C148.828,392.266,139.465,382.648,127.633,382.648z"></path></g></g><g><g><path d="M410.77,398.956c-2.202-9.351-10.598-16.309-20.632-16.309c-11.723,0-21.195,9.513-21.195,21.195 c0,11.714,9.492,21.195,21.195,21.195C404.02,425.038,413.943,411.985,410.77,398.956z"></path></g></g><g><g><path d="M496.918,368.792h-3.278v-75.621c0-23.779-19.242-43.034-43.024-43.034c-3.601,0-36.956,0.036-40.902,0.04 l-42.581-138.301V76.214c0-21.175-17.234-38.409-38.409-38.409H58.045c-21.175,0-38.398,17.234-38.398,38.409 c0,10.799,0,281.923,0,292.579h-4.565C6.757,368.792,0,375.549,0,383.874c0,8.335,6.757,15.082,15.082,15.082 c13.823,0,26.465,0,42.38,0c-2.787,40.803,29.586,75.239,70.171,75.239c40.536,0,72.972-34.384,70.181-75.239h122.153 c-2.791,40.866,29.659,75.239,70.171,75.239c40.462,0,72.974-34.307,70.181-75.239c12.72,0,23.625,0,36.599,0 c8.325,0,15.082-6.747,15.082-15.082C512,375.549,505.243,368.792,496.918,368.792z M49.81,76.214c0-4.545,3.69-8.245,8.235-8.245 h270.68c4.545,0,8.245,3.7,8.245,8.245v23.126H49.81V76.214z M127.633,444.031c-24.247,0-42.854-21.402-39.877-45.075 c2.409-19.781,19.316-35.292,39.877-35.292c20.608,0,37.482,15.543,39.887,35.292 C170.506,422.687,151.837,444.031,127.633,444.031z M390.138,444.031c-24.245,0-42.855-21.402-39.877-45.075 c2.549-20.925,20.256-34.938,39.282-35.295c20.349-0.381,38.002,14.943,40.481,35.295 C433.011,422.687,414.343,444.031,390.138,444.031z M463.477,368.792h-12.367c-27.062-46.916-94.753-47.12-121.932,0H188.604 c-27.047-46.89-94.741-47.157-121.942,0H49.81V129.503h291.191l43.164,140.211c1.935,6.274,7.732,10.648,14.438,10.648 c0.425,0,35.639-0.06,52.012-0.06c7.177,0,12.86,5.839,12.86,12.87V368.792z"></path></g></g></svg>