<!-- icon666.com - MILLIONS vector ICONS FREE --><svg id="Capa_1" enable-background="new 0 0 512 512" viewBox="0 0 512 512" fill="#A0522D" xmlns="http://www.w3.org/2000/svg"><g><path d="m421.69 130.967c22.405 0 40.633-18.229 40.633-40.634s-18.227-40.633-40.633-40.633c-22.405 0-40.633 18.227-40.633 40.633s18.228 40.634 40.633 40.634zm0-66.267c14.134 0 25.633 11.499 25.633 25.633 0 14.135-11.499 25.634-25.633 25.634s-25.633-11.499-25.633-25.634c0-14.134 11.499-25.633 25.633-25.633z"></path><path d="m421.69 31.566c4.142 0 7.5-3.357 7.5-7.5v-16.566c0-4.143-3.358-7.5-7.5-7.5s-7.5 3.357-7.5 7.5v16.566c0 4.143 3.358 7.5 7.5 7.5z"></path><path d="m369.523 48.762c1.464 1.465 3.384 2.197 5.303 2.197s3.839-.732 5.303-2.196c2.929-2.929 2.929-7.678 0-10.607l-11.714-11.715c-2.928-2.93-7.677-2.929-10.606-.001-2.929 2.929-2.929 7.678 0 10.606z"></path><path d="m338.834 97.81h16.566c4.142 0 7.5-3.358 7.5-7.5 0-4.143-3.358-7.5-7.5-7.5h-16.566c-4.142 0-7.5 3.357-7.5 7.5 0 4.142 3.357 7.5 7.5 7.5z"></path><path d="m369.489 131.87-11.715 11.715c-2.929 2.93-2.929 7.678 0 10.607 1.464 1.464 3.384 2.196 5.303 2.196s3.839-.732 5.303-2.196l11.715-11.715c2.929-2.93 2.929-7.678 0-10.607-2.928-2.928-7.677-2.928-10.606 0z"></path><path d="m414.143 156.6v16.567c0 4.143 3.358 7.5 7.5 7.5s7.5-3.357 7.5-7.5v-16.567c0-4.143-3.358-7.5-7.5-7.5s-7.5 3.357-7.5 7.5z"></path><path d="m463.204 131.905c-2.929 2.929-2.929 7.678 0 10.606l11.714 11.714c1.464 1.464 3.384 2.196 5.303 2.196s3.839-.732 5.303-2.197c2.929-2.929 2.929-7.678 0-10.606l-11.714-11.714c-2.928-2.927-7.677-2.928-10.606.001z"></path><path d="m480.433 90.357c0 4.143 3.358 7.5 7.5 7.5h16.567c4.142 0 7.5-3.357 7.5-7.5s-3.358-7.5-7.5-7.5h-16.567c-4.142 0-7.5 3.358-7.5 7.5z"></path><path d="m468.541 50.992c1.919 0 3.839-.732 5.303-2.196l11.714-11.714c2.929-2.929 2.929-7.678 0-10.606-2.929-2.93-7.678-2.929-10.606-.001l-11.714 11.714c-2.929 2.929-2.929 7.678 0 10.606 1.464 1.465 3.384 2.197 5.303 2.197z"></path><path d="m512 286.591c0-6.542-4.115-12.48-10.242-14.779l-55.822-20.933c-4.818-1.807-9.982-2.028-14.939-.642l-75.172 21.048-19.464-7.786h19.039c13.271 0 24.067-10.796 24.067-24.066s-10.796-24.067-24.067-24.067h-49.7c-4.999 0-9.067-4.067-9.067-9.066s4.067-9.066 9.067-9.066h16.566c13.271 0 24.067-10.796 24.067-24.066s-10.796-24.067-24.067-24.067h-93.806c-4.142 0-7.5 3.357-7.5 7.5s3.358 7.5 7.5 7.5h93.807c5 0 9.067 4.067 9.067 9.067 0 4.999-4.067 9.066-9.067 9.066h-16.567c-13.271 0-24.067 10.796-24.067 24.066s10.796 24.066 24.067 24.066h49.7c5 0 9.067 4.067 9.067 9.067 0 4.999-4.067 9.066-9.067 9.066h-56.538l-33.948-13.579c-5.741-2.296-12.067-2.306-17.814-.025l-34.289 13.605h-72.777c-4.999 0-9.066-4.067-9.066-9.066 0-5 4.067-9.067 9.066-9.067h66.266c13.27 0 24.067-10.796 24.067-24.066 0-13.271-10.796-24.066-24.067-24.066h-33.133c-4.999 0-9.066-4.067-9.066-9.066 0-5 4.067-9.067 9.066-9.067h20.293c4.142 0 7.5-3.357 7.5-7.5s-3.358-7.5-7.5-7.5h-20.293c-13.27 0-24.066 10.797-24.066 24.067 0 13.271 10.796 24.066 24.066 24.066h33.133c4.999 0 9.067 4.067 9.067 9.066s-4.067 9.066-9.067 9.066h-66.267c-13.271 0-24.066 10.797-24.066 24.067 0 13.271 10.796 24.066 24.066 24.066h34.972l-34.431 13.661-45.019-11.847c-.173-.046-.345-.076-.518-.109l-11.155-22.311c-3.146-6.292-8.865-10.879-15.689-12.585l-48.583-12.145c-4.748-1.187-9.684-.14-13.541 2.872-3.857 3.012-6.069 7.546-6.069 12.44v254.458c0 13.27 10.796 24.066 24.066 24.066h23.917c4.142 0 7.5-3.357 7.5-7.5s-3.358-7.5-7.5-7.5h-23.917c-4.999 0-9.066-4.067-9.066-9.066v-9.067h482v9.067c0 4.999-4.067 9.066-9.067 9.066h-404.95c-4.142 0-7.5 3.357-7.5 7.5s3.358 7.5 7.5 7.5h404.95c13.27 0 24.067-10.796 24.067-24.066zm-115.184 144.142c-4.999 0-9.066-4.067-9.066-9.066 0-5 4.067-9.067 9.066-9.067h49.7c13.271 0 24.067-10.796 24.067-24.066s-10.796-24.066-24.067-24.066h-16.566c-4.999 0-9.067-4.067-9.067-9.066 0-5 4.067-9.067 9.067-9.067h67.05v84.4h-100.184zm33.134-51.266h16.566c5 0 9.067 4.067 9.067 9.066s-4.067 9.066-9.067 9.066h-49.7c-13.27 0-24.066 10.797-24.066 24.067 0 3.207.635 6.266 1.779 9.066h-130.13c-10.12 0-19.314-5.976-23.424-15.223l-30.746-69.178h217.433c-1.144 2.801-1.779 5.861-1.779 9.067 0 13.273 10.797 24.069 24.067 24.069zm5.091-114.784c1.868-.523 3.814-.439 5.629.241l55.821 20.933c.305.114.509.409.509.734v41.164l-118.266-47.306zm-182.411-15.844c2.166-.858 4.55-.857 6.712.01l206.212 82.484h-281.991l-13.648-30.708c-2.551-5.741-6.32-10.701-10.974-14.613zm-237.63 215.027v-230.39c0-.095 0-.382.301-.617.302-.235.582-.165.672-.143l48.582 12.145c2.571.643 4.725 2.37 5.911 4.741l29.726 59.452c1.852 3.704 6.357 5.205 10.062 3.353s5.207-6.357 3.354-10.062l-9.656-19.312 35.355 9.304c7.564 1.99 13.724 7.231 16.9 14.379l51.061 114.886c6.515 14.659 21.089 24.131 37.131 24.131h252.601v18.133z"></path><path d="m28.697 81.267h90.627c7.725 0 14.935-3.062 20.3-8.621 5.363-5.558 8.165-12.877 7.891-20.608-.533-14.991-13.401-27.188-28.687-27.188h-10.344c-4.577-5.284-11.107-8.283-18.151-8.283-2.108 0-4.181.272-6.192.811-6.62-10.786-18.29-17.378-31.083-17.378-16.625 0-30.858 10.943-35.185 26.816-10.739 4.209-17.843 14.489-17.873 26.167-.019 7.376 2.91 14.386 8.248 19.738 5.416 5.431 12.87 8.546 20.449 8.546zm-4.456-40.8c3.916-1.232 6.926-4.567 7.856-8.706 2.178-9.712 10.994-16.761 20.961-16.761 8.085 0 15.41 4.474 19.117 11.676 2.763 5.366 9.255 7.805 14.781 5.551 1.073-.438 2.209-.66 3.377-.66 2.846 0 5.473 1.309 7.208 3.591 2.267 2.982 5.67 4.692 9.336 4.692h11.95c7.303 0 13.447 5.706 13.696 12.721.129 3.627-1.183 7.057-3.694 9.658-2.513 2.605-5.889 4.038-9.506 4.038h-90.626c-3.624 0-7.206-1.508-9.829-4.138-2.503-2.51-3.877-5.744-3.868-9.106.015-5.778 3.728-10.823 9.241-12.556z"></path><path d="m48.917 381.033h-8.283c-4.142 0-7.5 3.357-7.5 7.5s3.358 7.5 7.5 7.5h8.283c4.142 0 7.5-3.357 7.5-7.5 0-4.142-3.358-7.5-7.5-7.5z"></path><path d="m98.617 430.733h-8.283c-4.142 0-7.5 3.357-7.5 7.5s3.358 7.5 7.5 7.5h8.283c4.142 0 7.5-3.357 7.5-7.5 0-4.142-3.358-7.5-7.5-7.5z"></path><path d="m156.6 397.6h-8.284c-4.142 0-7.5 3.357-7.5 7.5s3.358 7.5 7.5 7.5h8.284c4.142 0 7.5-3.357 7.5-7.5s-3.358-7.5-7.5-7.5z"></path></g></svg>