<!-- icon666.com - MILLIONS vector ICONS FREE --><svg version="1.1" id="Layer_1" fill="#A0522D" xmlns="http://www.w3.org/2000/svg" xmlns:xlink="http://www.w3.org/1999/xlink" x="0px" y="0px" viewBox="0 0 512 512" style="enable-background:new 0 0 512 512;" xml:space="preserve"><g><g><g><path d="M511.378,280.346l-12.29-33.765l4.341-1.58c5.328-1.939,8.076-7.83,6.136-13.158l-14.045-38.588 c-0.93-2.559-2.841-4.642-5.308-5.793c-2.468-1.15-5.291-1.274-7.85-0.343l-57.883,21.068c-5.328,1.939-8.076,7.83-6.136,13.158 l10.533,28.942l-31.033,11.295l-14.923-41.001l7.718-2.809c5.328-1.939,8.076-7.83,6.136-13.158 c-1.939-5.328-7.832-8.076-13.157-6.136l-17.362,6.319c-0.001,0-0.002,0.001-0.003,0.001s-0.002,0.001-0.003,0.001l-17.361,6.319 c-5.328,1.939-8.076,7.83-6.136,13.158c1.517,4.17,5.454,6.758,9.647,6.758c1.165,0,2.352-0.2,3.51-0.622l7.718-2.809 l14.923,41.001l-84.087,30.605c-2.586-3.768-7.472-5.474-11.964-3.84l-53.059,19.312c-4.494,1.635-7.139,6.083-6.698,10.632 l-84.087,30.605l-14.923-41.001l7.717-2.809c5.328-1.939,8.076-7.83,6.136-13.158c-1.939-5.328-7.831-8.073-13.157-6.136 l-34.729,12.641c-5.328,1.939-8.076,7.83-6.136,13.158c1.517,4.169,5.455,6.758,9.647,6.758c1.166,0,2.351-0.2,3.51-0.622 l7.718-2.809l14.923,41.001l-31.032,11.295l-10.533-28.941c-1.939-5.328-7.832-8.074-13.157-6.136L6.755,360.224 c-2.558,0.931-4.642,2.841-5.794,5.309c-1.15,2.468-1.273,5.291-0.342,7.85l14.046,38.589c1.517,4.169,5.453,6.758,9.647,6.758 c1.166,0,2.351-0.2,3.51-0.622l4.341-1.58l12.29,33.764c0.93,2.559,2.841,4.642,5.308,5.793c1.373,0.64,2.854,0.962,4.34,0.962 c1.186,0,2.375-0.205,3.511-0.619l187.956-68.411c1.03,1.498,2.438,2.716,4.113,3.498c1.373,0.64,2.854,0.962,4.34,0.962 c1.186,0,2.375-0.205,3.511-0.619l6.325-2.302v32.757h-20.533c-28.304,0-51.332,23.027-51.332,51.332 c0,5.67,4.597,10.266,10.266,10.266h184.871c5.669,0,10.266-4.596,10.266-10.266s-4.597-10.266-10.266-10.266H355.22 c-4.77-23.402-25.509-41.065-50.299-41.065h-20.533v-40.231l26.202-9.536c2.558-0.931,4.642-2.841,5.794-5.309 c0.78-1.675,1.076-3.514,0.901-5.323l187.956-68.41C510.57,291.565,513.317,285.674,511.378,280.346z M34.78,393.725 l-4.332,1.577l-7.023-19.295l38.589-14.045l7.022,19.295C69.036,381.257,34.783,393.724,34.78,393.725z M60.237,433.622 l-8.778-24.117l177.991-64.784l8.778,24.118L60.237,433.622z M304.92,442.847c13.385,0,24.803,8.582,29.04,20.533H214.283 c4.237-11.951,15.655-20.533,29.039-20.533H304.92z M260.155,369.053l-14.044-38.589l33.765-12.29l14.045,38.589L260.155,369.053 z M479.737,209.924l7.022,19.295c0,0-4.34,1.579-4.341,1.58l-34.247,12.464l-7.022-19.295L479.737,209.924z M310.581,342.505 l-8.778-24.118l177.991-64.784l8.778,24.118L310.581,342.505z"></path><path d="M433.055,463.379h-1.027c-5.669,0-10.266,4.596-10.266,10.266s4.597,10.266,10.266,10.266h1.027 c5.669,0,10.266-4.596,10.266-10.266S438.724,463.379,433.055,463.379z"></path><path d="M76.877,143.758h49.141c-0.724,3.087-1.11,6.294-1.11,9.578c0,0.008,0,0.1,0,0.108 c0.025,9.944,8.201,18.033,18.225,18.033h157.79c7.31,0,13.882-4.323,16.746-11.017c3.391-7.929,4.601-16.713,3.502-25.401 c-3.057-24.141-23.758-42.293-48.194-42.293c-0.056,0-0.116,0-0.172,0c-0.361,0.001-0.722,0.006-1.082,0.016 c-9.87-22.143-32.16-36.975-56.922-36.975c-4.632,0-9.142,0.526-13.489,1.49c-11.199-17.775-31.029-29.209-52.768-29.209 c-32.855,0-59.85,25.578-62.122,57.87c-16.32,5.959-27.77,21.679-27.77,39.66c0,0.008,0,0.1,0,0.108 C58.677,135.668,66.853,143.758,76.877,143.758z M214.8,76.339c18.607,0,35.129,12.483,40.179,30.357 c1.476,5.23,6.772,8.402,12.082,7.236c1.882-0.413,3.839-0.626,5.816-0.633c0.036,0,0.07,0,0.107,0 c14.338,0,26.029,10.222,27.818,24.34c0.576,4.545,0.076,9.113-1.441,13.306H145.573c1.088-9.775,8.755-17.782,18.683-19.091 c5.379-0.708,9.277-5.479,8.9-10.892c-0.065-0.938-0.099-1.903-0.099-2.869C173.057,95.07,191.783,76.339,214.8,76.339z M98,104.134c5.379-0.708,9.277-5.479,8.9-10.892c-0.066-0.948-0.1-1.914-0.1-2.869c0-23.022,18.726-41.753,41.743-41.753 c13.337,0,25.598,6.417,33.337,16.632c-16.436,10.281-27.764,28.005-29.201,48.423c-5.722,2.089-10.843,5.383-15.084,9.549 H79.317C80.405,113.451,88.073,105.442,98,104.134z"></path></g></g></g></svg>